# AST/ASF file generated using VICON BodyLanguage
# -----------------------------------------------
:version 1.10
:name VICON
:units
  mass 1.0
  length 0.45
  angle deg
:documentation
   .ast/.asf automatically generated from VICON data using
   VICON BodyBuilder and BodyLanguage model FoxedUp or BRILLIANT.MOD
:root
   order TX TY TZ RX RY RZ
   axis XYZ
   position 0 0 0  
   orientation 0 0 0 
:bonedata
  begin
     id 1 
     name lhipjoint
     direction 0.522423 -0.726805 0.445902 
     length 2.25074 
     axis 0 0 0  XYZ
  end
  begin
     id 2 
     name lfemur
     direction 0.34202 -0.939693 0  
     length 6.54609  
     axis 0 0 20  XYZ
    dof rx ry rz
    limits (-160.0 20.0)
           (-70.0 70.0)
           (-60.0 70.0)
  end
  begin
     id 3 
     name ltibia
     direction 0.34202 -0.939693 0   
     length 7.7528   
     axis 0 0 20   XYZ
    dof rx
    limits (-10.0 170.0)
  end
  begin
     id 4 
     name lfoot
     direction 0.143696 -0.394801 0.90746   
     length 1.73269   
     axis -90 7.62852e-016 20   XYZ
    dof rx rz
    limits (-45.0 90.0)
           (-70.0 20.0)
  end
  begin
     id 5 
     name ltoes
     direction 1.53633e-011 -4.21912e-011 1   
     length 0.858383   
     axis -90 7.62852e-016 20   XYZ
    dof rx
    limits (-90.0 20.0)
  end
  begin
     id 6 
     name rhipjoint
     direction -0.515943 -0.73016 0.447961   
     length 2.2404  
     axis 0 0 0  XYZ 
  end
  begin
     id 7 
     name rfemur
     direction -0.34202 -0.939693 0   
     length 6.84377   
     axis 0 0 -20   XYZ
    dof rx ry rz
    limits (-160.0 20.0)
           (-70.0 70.0)
           (-70.0 60.0)
  end
  begin
     id 8 
     name rtibia
     direction -0.34202 -0.939693 0   
     length 7.57596   
     axis 0 0 -20   XYZ
    dof rx
    limits (-10.0 170.0)
 end
 begin
     id 9 
     name rfoot
     direction -0.0999372 -0.274575 0.956358   
     length 1.78783  
     axis -90 -7.62852e-016 -20   XYZ
    dof rx rz
    limits (-45.0 90.0)
           (-20.0 70.0)
  end
  begin
     id 10 
     name rtoes
     direction -1.53535e-011 -4.21895e-011 1   
     length 0.898614   
     axis -90 -7.62852e-016 -20   XYZ
    dof rx
    limits (-90.0 20.0)
  end
  begin
     id 11 
     name lowerback
     direction -0.011775 0.996164 -0.0867116   
     length 1.91499   
     axis 0 0 0   XYZ
    dof rx ry rz
    limits (-20.0 45.0)
           (-30.0 30.0)
           (-30.0 30.0)
  end
  begin
     id 12 
     name upperback
     direction -0.00189771 0.999673 -0.0254833   
     length 1.92213   
     axis 0 0 0   XYZ
    dof rx ry rz
    limits (-20.0 45.0)
           (-30.0 30.0)
           (-30.0 30.0)
  end
  begin
     id 13 
     name thorax
     direction 0.00335995 0.999878 0.0152401   
     length 1.93138   
     axis 0 0 0   XYZ
    dof rx ry rz
    limits (-20.0 45.0)
           (-30.0 30.0)
           (-30.0 30.0)
  end
  begin
     id 14 
     name lowerneck
     direction 0.00233191 0.998509 0.0545404   
     length 1.59408   
     axis 0 0 0   XYZ
    dof rx ry rz
    limits (-20.0 45.0)
           (-30.0 30.0)
           (-30.0 30.0)
  end
  begin
     id 15 
     name upperneck
     direction 0.07881 0.9956 -0.0506934   
     length 1.59344   
     axis 0 0 0   XYZ
    dof rx ry rz
    limits (-20.0 45.0)
           (-30.0 30.0)
           (-30.0 30.0)
  end
  begin
     id 16
     name head
     direction 0.0261681 0.999378 -0.0236299  
     length 1.60935  
     axis 0 0 0   XYZ
    dof rx ry rz
    limits (-20.0 45.0)
           (-30.0 30.0)
           (-30.0 30.0)
  end
  begin
     id 17 
     name lclavicle
     direction 0.96643 0.252035 0.0499195  
     length 3.82153  
     axis 0 0 0   XYZ
    dof ry rz
    limits (-20.0 10.0)
           (0.0 20.0)
  end
  begin
     id 18 
     name lhumerus
     direction 1 -4.48967e-011 -2.01614e-018   
     length 4.87796   
     axis 180 -30 -90   XYZ
    dof rx ry rz
    limits (-60.0 90.0)
           (-90.0 90.0)
           (-90.0 90.0)
  end
  begin
     id 19
     name lradius
     direction 1 -4.48958e-011 3.1409e-027   
     length 3.23169   
     axis 180 -30 -90   XYZ
    dof rx
    limits (-10.0 170.0)
  end
  begin
     id 20
     name lwrist
     direction 1 -4.48924e-011 1.0365e-027   
     length 1.61584   
     axis -2.56395e-016 90 90   XYZ
    dof ry
    limits (-180.0 0.0)
 end
  begin
     id 21 
     name lhand
     direction 1 -4.49055e-011 2.09488e-027   
     length 0.731324   
     axis -1.32723e-015 90 90   XYZ
    dof rx rz
    limits (-90.0 90.0)
           (-45.0 45.0)
  end
  begin
     id 22 
     name lfingers
     direction 1 -4.48935e-011 4.14981e-027   
     length 0.589612   
     axis -2.6545e-015 90 90   XYZ
    dof rx
    limits (0.0 90.0)
  end
  begin
     id 23
     name lthumb
     direction 0.707107 -6.35097e-011 0.707107   
     length 0.846569   
     axis -90 45 5.05613e-014   XYZ
    dof rx rz
    limits (-45.0 45.0)
           (-45.0 45.0)
  end
  begin
     id 24 
     name rclavicle
     direction -0.979337 0.201016 0.0221522   
     length 3.73827  
     axis 0 0 0   XYZ 
    dof ry rz
    limits (-10.0 20.0)
           (-20.0 0.0)
  end
  begin
     id 25 
     name rhumerus
     direction -1 -4.48971e-011 1.65907e-027  
     length 4.9143   
     axis 180 30 90   XYZ
    dof rx ry rz
    limits (-90.0 60.0)
           (-90.0 90.0)
           (-90.0 90.0)
  end
  begin
     id 26 
     name rradius
     direction -1 -4.4894e-011 2.17871e-028   
     length 3.29093   
     axis 180 30 90   XYZ
    dof rx
    limits (-10.0 170.0)
  end
  begin
     id 27 
     name rwrist
     direction -1 -4.48971e-011 1.04038e-027   
     length 1.64546   
     axis -2.56395e-016 -90 -90   XYZ
    dof ry
    limits (-180.0 0.0)
  end
  begin
     id 28
     name rhand
     direction -1 -4.49017e-011 2.08843e-027   
     length 0.54512   
     axis -1.32723e-015 -90 -90   XYZ
    dof rx rz
    limits (-90.0 90.0)
           (-45.0 45.0)
  end
  begin
     id 29
     name rfingers
     direction -1 -4.48918e-011 4.1439e-027   
     length 0.43949   
     axis -2.6545e-015 -90 -90   XYZ
    dof rx
    limits (0.0 90.0)
  end
  begin
     id 30
     name rthumb
     direction -0.707107 -6.35065e-011 0.707107   
     length 0.631022   
     axis -90 -45 -5.05613e-014   XYZ
    dof rx rz
    limits (-45.0 45.0)
           (-45.0 45.0)
  end
:hierarchy
  begin
    root lhipjoint rhipjoint lowerback
    lhipjoint lfemur
    lfemur ltibia
    ltibia lfoot
    lfoot ltoes
    rhipjoint rfemur
    rfemur rtibia
    rtibia rfoot
    rfoot rtoes
    lowerback upperback
    upperback thorax
    thorax lowerneck lclavicle rclavicle
    lowerneck upperneck
    upperneck head
    lclavicle lhumerus
    lhumerus lradius
    lradius lwrist
    lwrist lhand lthumb
    lhand lfingers
    rclavicle rhumerus
    rhumerus rradius
    rradius rwrist
    rwrist rhand rthumb
    rhand rfingers
  end

#!OML:ASF H:\BreakDance\Project 1\Capture day 1\Session 1\Male.ASF
:FULLY-SPECIFIED
:DEGREES
703
root 6.15039 15.0225 0.884023 197.838 -55.04 -178.284
lowerback 8.97193 -3.10014 2.8461
upperback 7.72613 -4.53364 2.30709
thorax 3.00902 -2.43324 1.0687
lowerneck 0.52795 8.88231 5.99096
upperneck -9.87041 11.4517 -7.33913
head -2.45851 5.65479 -3.63077
rclavicle -3.75051e-015 -9.78083e-015
rhumerus -44.3582 -46.6847 -59.8133
rradius 106.705
rwrist -82.4795
rhand -20.1583 -20.4743
rfingers 7.12502
rthumb 6.18697 -50.364
lclavicle -3.75051e-015 -9.78083e-015
lhumerus -22.795 -58.9366 97.0027
lradius 60.8294
lwrist -14.1222
lhand -4.25995 -10.8042
lfingers 7.12502
lthumb 21.5043 18.0221
rfemur -39.7648 3.93444 13.2337
rtibia 69.2948
rfoot -28.4789 17.564
rtoes 28.4893
lfemur -73.855 6.83096 -18.9655
ltibia 80.3694
lfoot -3.05993 -9.80037
ltoes -20.0967
704
root 6.09816 15.0543 0.881201 197.58 -54.7125 -178.815
lowerback 8.84942 -3.04609 3.0109
upperback 7.8143 -4.45579 1.96944
thorax 3.12946 -2.3761 0.612939
lowerneck 0.61965 8.87097 6.08609
upperneck -9.42103 11.4563 -7.61139
head -2.30214 5.67679 -3.72235
rclavicle -4.66965e-014 -2.25489e-014
rhumerus -42.692 -45.9284 -61.077
rradius 106.815
rwrist -81.3545
rhand -20.0044 -20.6293
rfingers 7.12502
rthumb 6.33558 -50.5145
lclavicle -4.66965e-014 -2.25489e-014
lhumerus -21.5282 -58.6825 95.1052
lradius 59.5664
lwrist -14.5764
lhand -4.05402 -11.1905
lfingers 7.12502
lthumb 21.7021 17.613
rfemur -38.6555 4.48036 12.7954
rtibia 68.9083
rfoot -28.2918 17.095
rtoes 28.0279
lfemur -74.1953 8.30347 -19.5378
ltibia 81.1943
lfoot 0.01216 -11.0224
ltoes -21.3924
705
root 6.03944 15.0903 0.879466 197.295 -54.3553 -179.341
lowerback 8.66202 -3.00527 3.20742
upperback 7.92025 -4.39817 1.60622
thorax 3.30197 -2.32605 0.110132
lowerneck 0.737875 8.87674 6.23795
upperneck -8.96315 11.4886 -7.89461
head -2.14234 5.71041 -3.82912
rclavicle -3.34766e-014 1.95958e-014
rhumerus -40.6808 -44.8858 -62.6538
rradius 106.931
rwrist -80.0899
rhand -19.667 -20.697
rfingers 7.12502
rthumb 6.66128 -50.5722
lclavicle -3.34766e-014 1.95958e-014
lhumerus -20.2335 -58.2664 93.1432
lradius 58.2347
lwrist -15.0446
lhand -3.69043 -11.4922
lfingers 7.12502
lthumb 22.0512 17.2706
rfemur -37.5364 4.96917 12.365
rtibia 68.5282
rfoot -27.9604 16.6119
rtoes 27.5849
lfemur -74.3891 9.6551 -19.9827
ltibia 81.788
lfoot 2.25096 -11.9824
ltoes -23.9293
706
root 5.97637 15.1281 0.879187 197.01 -53.9712 -179.881
lowerback 8.44247 -2.9929 3.37533
upperback 8.03387 -4.38358 1.25411
thorax 3.5039 -2.29847 -0.364948
lowerneck 0.879221 8.92125 6.34228
upperneck -8.5078 11.5748 -8.16792
head -1.98692 5.77143 -3.92586
rclavicle 3.02774e-014 -6.4605e-016
rhumerus -38.336 -43.5037 -64.4719
rradius 107.017
rwrist -78.702
rhand -19.2326 -20.6416
rfingers 7.12502
rthumb 7.08066 -50.5031
lclavicle 3.02774e-014 -6.4605e-016
lhumerus -18.9252 -57.6668 91.1929
lradius 56.8242
lwrist -15.542
lhand -3.39404 -11.7207
lfingers 7.12502
lthumb 22.3358 17.0082
rfemur -36.442 5.39231 11.9242
rtibia 68.1778
rfoot -27.4999 16.1311
rtoes 27.1489
lfemur -74.4238 10.8745 -20.3305
ltibia 82.0969
lfoot 3.49261 -12.5138
ltoes -27.1473
707
root 5.91068 15.1661 0.880508 196.729 -53.5623 -180.432
lowerback 8.22765 -3.0086 3.49104
upperback 8.14444 -4.41076 0.936313
thorax 3.70572 -2.29509 -0.773172
lowerneck 1.03411 9.00752 6.3419
upperneck -8.05776 11.7162 -8.41913
head -1.83869 5.86154 -3.99748
rclavicle -4.54596e-014 -2.55687e-014
rhumerus -35.7474 -41.7584 -66.4168
rradius 107.052
rwrist -77.1795
rhand -18.723 -20.4917
rfingers 7.12502
rthumb 7.57253 -50.3361
lclavicle -4.54596e-014 -2.55687e-014
lhumerus -17.6357 -56.9449 89.3294
lradius 55.3477
lwrist -16.0609
lhand -3.39397 -11.9439
lfingers 7.12502
lthumb 22.3358 16.785
rfemur -35.3959 5.75467 11.4708
rtibia 67.8745
rfoot -26.9226 15.6697
rtoes 26.7422
lfemur -74.2866 11.9841 -20.608
ltibia 82.07
lfoot 3.75466 -12.3831
ltoes -30.6196
708
root 5.84288 15.2037 0.88294 196.45 -53.1303 -180.991
lowerback 8.03996 -3.04722 3.54319
upperback 8.24342 -4.47182 0.669294
thorax 3.88728 -2.31357 -1.09038
lowerneck 1.18512 9.12722 6.20274
upperneck -7.60359 11.8993 -8.6443
head -1.69487 5.97397 -4.0349
rclavicle 8.27441e-014 -4.7112e-014
rhumerus -33.0415 -39.6281 -68.3512
rradius 107.033
rwrist -75.5285
rhand -18.1567 -20.2882
rfingers 7.12502
rthumb 8.11907 -50.1122
lclavicle 8.27441e-014 -4.7112e-014
lhumerus -16.3965 -56.167 87.6229
lradius 53.8365
lwrist -16.5472
lhand -3.76728 -12.2317
lfingers 7.12502
lthumb 21.9774 16.5398
rfemur -34.3988 6.07273 11.0051
rtibia 67.6229
rfoot -26.2512 15.2392
rtoes 26.4012
lfemur -73.9525 13.0114 -20.8359
ltibia 81.6573
lfoot 3.18809 -11.4188
ltoes -34.0174
709
root 5.77337 15.2406 0.885791 196.185 -52.6489 -181.56
lowerback 7.87947 -3.07902 3.52706
upperback 8.32165 -4.52553 0.448051
thorax 4.03993 -2.3335 -1.32094
lowerneck 1.33074 9.25405 5.92517
upperneck -7.1429 12.0882 -8.82987
head -1.55871 6.08973 -4.03394
rclavicle 5.76227e-014 -2.31087e-015
rhumerus -30.3628 -37.1606 -70.1453
rradius 106.963
rwrist -73.7929
rhand -17.5965 -20.0688
rfingers 7.12502
rthumb 8.65974 -49.8711
lclavicle 5.76227e-014 -2.31087e-015
lhumerus -15.219 -55.4428 86.1111
lradius 52.3288
lwrist -16.9068
lhand -4.39267 -12.62
lfingers 7.12502
lthumb 21.3768 16.2208
rfemur -33.4644 6.38073 10.5176
rtibia 67.424
rfoot -25.513 14.8524
rtoes 26.1717
lfemur -73.4155 14.0098 -21.0362
ltibia 80.8156
lfoot 2.05894 -9.62453
ltoes -37.115
710
root 5.70145 15.2768 0.888818 195.919 -52.1345 -182.143
lowerback 7.76719 -3.09142 3.47171
upperback 8.38059 -4.55252 0.257217
thorax 4.15152 -2.34386 -1.49617
lowerneck 1.47875 9.36645 5.52506
upperneck -6.68335 12.2546 -8.95054
head -1.43774 6.19305 -3.99053
rclavicle -1.31434e-013 8.38871e-014
rhumerus -27.8129 -34.4343 -71.7214
rradius 106.84
rwrist -72.0418
rhand -17.0874 -19.8732
rfingers 7.12502
rthumb 9.15104 -49.6546
lclavicle -1.31434e-013 8.38871e-014
lhumerus -14.0858 -54.8867 84.7742
lradius 50.8619
lwrist -17.0046
lhand -5.05269 -13.093
lfingers 7.12502
lthumb 20.7428 15.8184
rfemur -32.5503 6.67106 10.0166
rtibia 67.2679
rfoot -24.7606 14.5054
rtoes 26.0247
lfemur -72.6344 14.9798 -21.1995
ltibia 79.5078
lfoot 0.637796 -7.22839
ltoes -39.2548
711
root 5.62724 15.3108 0.892 195.654 -51.5743 -182.731
lowerback 7.69848 -3.06521 3.39221
upperback 8.42838 -4.5265 0.0645074
thorax 4.23118 -2.32976 -1.65934
lowerneck 1.59947 9.45336 5.08371
upperneck -6.2196 12.386 -8.9887
head -1.32239 6.27429 -3.91124
rclavicle -3.13583e-014 1.92759e-014
rhumerus -25.422 -31.5571 -73.0946
rradius 106.656
rwrist -70.3349
rhand -16.6568 -19.7359
rfingers 7.12502
rthumb 9.5665 -49.4987
lclavicle -3.13583e-014 1.92759e-014
lhumerus -12.9289 -54.5632 83.4996
lradius 49.4572
lwrist -16.7592
lhand -5.56167 -13.5594
lfingers 7.12502
lthumb 20.2537 15.4047
rfemur -31.6624 6.95285 9.50768
rtibia 67.1554
rfoot -24.0501 14.1626
rtoes 25.8641
lfemur -71.6138 15.9346 -21.3096
ltibia 77.7248
lfoot -0.871133 -4.61812
ltoes -40.272
712
root 5.55061 15.3405 0.895343 195.393 -50.9538 -183.324
lowerback 7.65348 -2.97589 3.31569
upperback 8.4688 -4.41369 -0.160904
thorax 4.29184 -2.27155 -1.86018
lowerneck 1.71401 9.48947 4.67222
upperneck -5.7589 12.4515 -8.94565
head -1.21653 6.31733 -3.81146
rclavicle -4.60062e-014 2.1096e-014
rhumerus -23.2222 -28.6459 -74.2675
rradius 106.409
rwrist -68.7325
rhand -16.2956 -19.6727
rfingers 7.12502
rthumb 9.91494 -49.4192
lclavicle -4.60062e-014 2.1096e-014
lhumerus -11.7147 -54.4881 82.2353
lradius 48.0951
lwrist -16.2352
lhand -5.80589 -13.9234
lfingers 7.12502
lthumb 20.0189 15.0653
rfemur -30.7987 7.22314 8.98748
rtibia 67.0877
rfoot -23.438 13.788
rtoes 25.6306
lfemur -70.3643 16.8755 -21.3552
ltibia 75.4805
lfoot -2.40486 -2.15541
ltoes -40.3783
713
root 5.47094 15.3639 0.89873 195.134 -50.2679 -183.914
lowerback 7.60715 -2.84163 3.23114
upperback 8.50864 -4.24085 -0.41118
thorax 4.35543 -2.18312 -2.0851
lowerneck 1.81759 9.4963 4.28326
upperneck -5.29613 12.4788 -8.84424
head -1.11409 6.33728 -3.69666
rclavicle -6.51517e-014 -4.38817e-014
rhumerus -21.1572 -25.6607 -75.2775
rradius 106.09
rwrist -67.2796
rhand -15.9734 -19.6664
rfingers 7.12502
rthumb 10.2258 -49.3979
lclavicle -6.51517e-014 -4.38817e-014
lhumerus -10.453 -54.4932 80.9863
lradius 46.7259
lwrist -15.5734
lhand -5.79896 -14.1003
lfingers 7.12502
lthumb 20.0256 14.8878
rfemur -29.951 7.46009 8.45965
rtibia 67.0638
rfoot -22.975 13.3669
rtoes 25.2959
lfemur -68.8945 17.7796 -21.3112
ltibia 72.8103
lfoot -3.92668 -0.0697871
ltoes -39.6884
714
root 5.38827 15.3789 0.902178 194.876 -49.5361 -184.496
lowerback 7.53992 -2.68898 3.12433
upperback 8.55493 -4.04566 -0.67398
thorax 4.44059 -2.08422 -2.31318
lowerneck 1.88732 9.50037 3.90776
upperneck -4.81845 12.503 -8.70317
head -1.00351 6.3519 -3.56897
rclavicle 2.43014e-014 -1.59028e-014
rhumerus -19.1619 -22.5697 -76.1587
rradius 105.679
rwrist -65.9765
rhand -15.6544 -19.711
rfingers 7.12502
rthumb 10.5335 -49.427
lclavicle 2.43014e-014 -1.59028e-014
lhumerus -9.16919 -54.426 79.7661
lradius 45.3069
lwrist -14.9054
lhand -5.68055 -14.0086
lfingers 7.12502
lthumb 20.1394 14.9675
rfemur -29.1097 7.6094 7.93006
rtibia 67.0793
rfoot -22.6944 12.8876
rtoes 24.8465
lfemur -67.2229 18.5957 -21.1549
ltibia 69.7697
lfoot -5.41157 1.56607
ltoes -38.5327
715
root 5.30227 15.385 0.905877 194.623 -48.7885 -185.07
lowerback 7.4305 -2.52852 3.01616
upperback 8.61871 -3.8426 -0.957278
thorax 4.56867 -1.98048 -2.56515
lowerneck 1.9044 9.50818 3.59296
upperneck -4.32285 12.5337 -8.55354
head -0.874868 6.36582 -3.44538
rclavicle 4.00054e-014 -4.33351e-014
rhumerus -17.2042 -19.4004 -76.9326
rradius 105.164
rwrist -64.8138
rhand -15.3061 -19.8084
rfingers 7.12502
rthumb 10.8695 -49.5071
lclavicle 4.00054e-014 -4.33351e-014
lhumerus -7.8582 -54.2516 78.5482
lradius 43.8126
lwrist -14.3402
lhand -5.52862 -13.6907
lfingers 7.12502
lthumb 20.2854 15.2699
rfemur -28.261 7.60265 7.40524
rtibia 67.1167
rfoot -22.6087 12.3387
rtoes 24.2743
lfemur -65.3782 19.2864 -20.8841
ltibia 66.426
lfoot -6.83474 2.77453
ltoes -37.4193
